<svg width="25" height="24" viewBox="0 0 25 24" fill="none" xmlns="http://www.w3.org/2000/svg">
<path d="M16.5073 8C18.0986 8 19.6247 8.63214 20.75 9.75736C21.8752 10.8826 22.5073 12.4087 22.5073 14V21H18.5073V14C18.5073 13.4696 18.2966 12.9609 17.9215 12.5858C17.5465 12.2107 17.0378 12 16.5073 12C15.9769 12 15.4682 12.2107 15.0931 12.5858C14.718 12.9609 14.5073 13.4696 14.5073 14V21H10.5073V14C10.5073 12.4087 11.1395 10.8826 12.2647 9.75736C13.3899 8.63214 14.916 8 16.5073 8V8Z" stroke="#E0E0E0" stroke-width="1.25" stroke-linecap="round" stroke-linejoin="round"/>
<path d="M6.50732 9H2.50732V21H6.50732V9Z" stroke="#E0E0E0" stroke-width="1.25" stroke-linecap="round" stroke-linejoin="round"/>
<path d="M4.50732 6C5.61189 6 6.50732 5.10457 6.50732 4C6.50732 2.89543 5.61189 2 4.50732 2C3.40275 2 2.50732 2.89543 2.50732 4C2.50732 5.10457 3.40275 6 4.50732 6Z" stroke="#E0E0E0" stroke-width="1.25" stroke-linecap="round" stroke-linejoin="round"/>
</svg>
