<svg width="34" height="34" viewBox="0 0 34 34" fill="none" xmlns="http://www.w3.org/2000/svg">
<path d="M22.6663 22.6667L16.9997 17L11.333 22.6667" stroke="#FDFDFD" stroke-width="1.25" stroke-linecap="round" stroke-linejoin="round"/>
<path d="M17 17V29.75" stroke="#FDFDFD" stroke-width="1.25" stroke-linecap="round" stroke-linejoin="round"/>
<path d="M28.8859 26.0525C30.2676 25.2992 31.3592 24.1072 31.9882 22.6647C32.6173 21.2222 32.748 19.6112 32.3599 18.0861C31.9717 16.561 31.0867 15.2086 29.8445 14.2424C28.6024 13.2761 27.0738 12.751 25.5001 12.75H23.7151C23.2863 11.0914 22.487 9.55164 21.3775 8.2464C20.2679 6.94117 18.8769 5.90445 17.309 5.21419C15.7411 4.52393 14.0372 4.19809 12.3252 4.26116C10.6133 4.32424 8.93791 4.77459 7.42507 5.57836C5.91222 6.38212 4.60127 7.51839 3.59078 8.90174C2.58029 10.2851 1.89654 11.8795 1.59095 13.5651C1.28536 15.2508 1.36588 16.9837 1.82645 18.6338C2.28702 20.2838 3.11566 21.808 4.25007 23.0917" stroke="#FDFDFD" stroke-width="1.25" stroke-linecap="round" stroke-linejoin="round"/>
<path d="M22.6663 22.6667L16.9997 17L11.333 22.6667" stroke="#FDFDFD" stroke-width="1.25" stroke-linecap="round" stroke-linejoin="round"/>
</svg>
