<svg width="25" height="25" viewBox="0 0 25 25" fill="none" xmlns="http://www.w3.org/2000/svg">
<path d="M16.9424 8.0957C18.5337 8.0957 20.0598 8.72784 21.185 9.85306C22.3102 10.9783 22.9424 12.5044 22.9424 14.0957V21.0957H18.9424V14.0957C18.9424 13.5653 18.7317 13.0566 18.3566 12.6815C17.9815 12.3064 17.4728 12.0957 16.9424 12.0957C16.4119 12.0957 15.9032 12.3064 15.5282 12.6815C15.1531 13.0566 14.9424 13.5653 14.9424 14.0957V21.0957H10.9424V14.0957C10.9424 12.5044 11.5745 10.9783 12.6997 9.85306C13.825 8.72784 15.3511 8.0957 16.9424 8.0957V8.0957Z" stroke="#FDFDFD" stroke-width="1.25" stroke-linecap="round" stroke-linejoin="round"/>
<path d="M6.94238 9.0957H2.94238V21.0957H6.94238V9.0957Z" stroke="#FDFDFD" stroke-width="1.25" stroke-linecap="round" stroke-linejoin="round"/>
<path d="M4.94238 6.0957C6.04695 6.0957 6.94238 5.20027 6.94238 4.0957C6.94238 2.99113 6.04695 2.0957 4.94238 2.0957C3.83781 2.0957 2.94238 2.99113 2.94238 4.0957C2.94238 5.20027 3.83781 6.0957 4.94238 6.0957Z" stroke="#FDFDFD" stroke-width="1.25" stroke-linecap="round" stroke-linejoin="round"/>
</svg>
