<svg width="25" height="25" viewBox="0 0 25 25" fill="none" xmlns="http://www.w3.org/2000/svg">
<path d="M22.4428 17.5158V20.5158C22.4439 20.7943 22.3869 21.07 22.2753 21.3251C22.1637 21.5803 22.0001 21.8094 21.7949 21.9977C21.5897 22.1859 21.3474 22.3293 21.0836 22.4185C20.8197 22.5077 20.5402 22.5409 20.2628 22.5158C17.1856 22.1814 14.2298 21.1299 11.6328 19.4458C9.21663 17.9105 7.16814 15.862 5.6328 13.4458C3.94278 10.837 2.89105 7.86679 2.5628 4.7758C2.53781 4.49927 2.57068 4.22056 2.6593 3.95742C2.74793 3.69429 2.89038 3.45249 3.07757 3.24742C3.26477 3.04235 3.49261 2.87851 3.7466 2.76632C4.00058 2.65413 4.27514 2.59606 4.5528 2.5958H7.5528C8.03811 2.59102 8.5086 2.76288 8.87657 3.07933C9.24454 3.39579 9.48488 3.83525 9.5528 4.3158C9.67943 5.27587 9.91425 6.21853 10.2528 7.1258C10.3873 7.48372 10.4165 7.87271 10.3367 8.24668C10.257 8.62065 10.0717 8.96391 9.8028 9.2358L8.5328 10.5058C9.95636 13.0093 12.0293 15.0822 14.5328 16.5058L15.8028 15.2358C16.0747 14.9669 16.418 14.7816 16.7919 14.7019C17.1659 14.6221 17.5549 14.6513 17.9128 14.7858C18.8201 15.1244 19.7627 15.3592 20.7228 15.4858C21.2086 15.5543 21.6522 15.799 21.9693 16.1733C22.2865 16.5476 22.455 17.0254 22.4428 17.5158Z" stroke="#FDFDFD" stroke-width="1.25" stroke-linecap="round" stroke-linejoin="round"/>
</svg>
