<svg width="25" height="25" viewBox="0 0 25 25" fill="none" xmlns="http://www.w3.org/2000/svg">
<g clip-path="url(#clip0_326_3629)">
<path d="M23.482 6.5157C23.3632 6.04111 23.1213 5.60627 22.7806 5.25511C22.44 4.90394 22.0127 4.64889 21.542 4.5157C19.822 4.0957 12.942 4.0957 12.942 4.0957C12.942 4.0957 6.06198 4.0957 4.34198 4.5557C3.87123 4.68889 3.44396 4.94394 3.10332 5.29511C2.76269 5.64627 2.52077 6.08111 2.40198 6.5557C2.08719 8.30126 1.93321 10.072 1.94198 11.8457C1.93076 13.6327 2.08475 15.417 2.40198 17.1757C2.53294 17.6356 2.78028 18.0538 3.12012 18.3902C3.45996 18.7265 3.8808 18.9695 4.34198 19.0957C6.06198 19.5557 12.942 19.5557 12.942 19.5557C12.942 19.5557 19.822 19.5557 21.542 19.0957C22.0127 18.9625 22.44 18.7075 22.7806 18.3563C23.1213 18.0051 23.3632 17.5703 23.482 17.0957C23.7943 15.3633 23.9483 13.606 23.942 11.8457C23.9532 10.0587 23.7992 8.2744 23.482 6.5157V6.5157Z" stroke="#FDFDFD" stroke-width="1.25" stroke-linecap="round" stroke-linejoin="round"/>
<path d="M10.6924 15.1157L16.4424 11.8457L10.6924 8.57568V15.1157Z" stroke="#FDFDFD" stroke-width="1.25" stroke-linecap="round" stroke-linejoin="round"/>
</g>
<defs>
<clipPath id="clip0_326_3629">
<rect width="24" height="24" fill="white" transform="translate(0.942383 0.0957031)"/>
</clipPath>
</defs>
</svg>
