<svg width="20" height="18" viewBox="0 0 20 18" fill="none" xmlns="http://www.w3.org/2000/svg">
<path d="M13.158 6C14.4143 6 15.6191 6.47411 16.5074 7.31802C17.3958 8.16193 17.8948 9.30653 17.8948 10.5V15.75H14.7369V10.5C14.7369 10.1022 14.5706 9.72064 14.2745 9.43934C13.9784 9.15804 13.5767 9 13.158 9C12.7392 9 12.3376 9.15804 12.0415 9.43934C11.7454 9.72064 11.579 10.1022 11.579 10.5V15.75H8.42114V10.5C8.42114 9.30653 8.9202 8.16193 9.80853 7.31802C10.6969 6.47411 11.9017 6 13.158 6V6Z" stroke="#F91100" stroke-width="1.25" stroke-linecap="round" stroke-linejoin="round"/>
<path d="M5.26324 6.75H2.10535V15.75H5.26324V6.75Z" stroke="#F91100" stroke-width="1.25" stroke-linecap="round" stroke-linejoin="round"/>
<path d="M3.68429 4.5C4.55632 4.5 5.26324 3.82843 5.26324 3C5.26324 2.17157 4.55632 1.5 3.68429 1.5C2.81227 1.5 2.10535 2.17157 2.10535 3C2.10535 3.82843 2.81227 4.5 3.68429 4.5Z" stroke="#F91100" stroke-width="1.25" stroke-linecap="round" stroke-linejoin="round"/>
</svg>
