<svg width="60" height="60" viewBox="0 0 60 60" fill="none" xmlns="http://www.w3.org/2000/svg">
<path d="M40 40L30 30L20 40" stroke="#343434" stroke-width="1.25" stroke-linecap="round" stroke-linejoin="round"/>
<path d="M30 30V52.5" stroke="#343434" stroke-width="4.25" stroke-linecap="round" stroke-linejoin="round"/>
<path d="M50.9747 45.975C53.413 44.6456 55.3392 42.5422 56.4493 39.9965C57.5594 37.4509 57.7902 34.608 57.1052 31.9167C56.4202 29.2253 54.8584 26.8387 52.6663 25.1336C50.4743 23.4284 47.7768 22.5018 44.9997 22.5H41.8497C41.0929 19.5731 39.6826 16.8558 37.7245 14.5524C35.7665 12.2491 33.3118 10.4196 30.5449 9.20148C27.778 7.98337 24.771 7.40836 21.7499 7.51967C18.7289 7.63097 15.7723 8.42571 13.1026 9.84412C10.4329 11.2625 8.11943 13.2677 6.33621 15.7089C4.55299 18.1501 3.34638 20.9638 2.80711 23.9384C2.26783 26.9131 2.40992 29.9713 3.22269 32.8831C4.03546 35.7949 5.49776 38.4846 7.49966 40.75" stroke="#343434" stroke-width="4.25" stroke-linecap="round" stroke-linejoin="round"/>
<path d="M40 40L30 30L20 40" stroke="#343434" stroke-width="4.25" stroke-linecap="round" stroke-linejoin="round"/>
</svg>
