<svg width="20" height="18" viewBox="0 0 20 18" fill="none" xmlns="http://www.w3.org/2000/svg">
<path d="M13.1577 6C14.414 6 15.6189 6.47411 16.5072 7.31802C17.3955 8.16193 17.8946 9.30653 17.8946 10.5V15.75H14.7367V10.5C14.7367 10.1022 14.5703 9.72064 14.2742 9.43934C13.9781 9.15804 13.5765 9 13.1577 9C12.739 9 12.3374 9.15804 12.0413 9.43934C11.7451 9.72064 11.5788 10.1022 11.5788 10.5V15.75H8.4209V10.5C8.4209 9.30653 8.91996 8.16193 9.80829 7.31802C10.6966 6.47411 11.9015 6 13.1577 6V6Z" stroke="#F91100" stroke-width="1.25" stroke-linecap="round" stroke-linejoin="round"/>
<path d="M5.26336 6.75H2.10547V15.75H5.26336V6.75Z" stroke="#F91100" stroke-width="1.25" stroke-linecap="round" stroke-linejoin="round"/>
<path d="M3.68442 4.5C4.55644 4.5 5.26336 3.82843 5.26336 3C5.26336 2.17157 4.55644 1.5 3.68442 1.5C2.81239 1.5 2.10547 2.17157 2.10547 3C2.10547 3.82843 2.81239 4.5 3.68442 4.5Z" stroke="#F91100" stroke-width="1.25" stroke-linecap="round" stroke-linejoin="round"/>
</svg>
