<svg width="24" height="25" viewBox="0 0 24 25" fill="none" xmlns="http://www.w3.org/2000/svg">
<path d="M16 8.22656C17.5913 8.22656 19.1174 8.8587 20.2426 9.98392C21.3679 11.1091 22 12.6353 22 14.2266V21.2266H18V14.2266C18 13.6961 17.7893 13.1874 17.4142 12.8123C17.0391 12.4373 16.5304 12.2266 16 12.2266C15.4696 12.2266 14.9609 12.4373 14.5858 12.8123C14.2107 13.1874 14 13.6961 14 14.2266V21.2266H10V14.2266C10 12.6353 10.6321 11.1091 11.7574 9.98392C12.8826 8.8587 14.4087 8.22656 16 8.22656V8.22656Z" stroke="#0F0E0E" stroke-width="1.25" stroke-linecap="round" stroke-linejoin="round"/>
<path d="M6 9.22656H2V21.2266H6V9.22656Z" stroke="#0F0E0E" stroke-width="1.25" stroke-linecap="round" stroke-linejoin="round"/>
<path d="M4 6.22656C5.10457 6.22656 6 5.33113 6 4.22656C6 3.12199 5.10457 2.22656 4 2.22656C2.89543 2.22656 2 3.12199 2 4.22656C2 5.33113 2.89543 6.22656 4 6.22656Z" stroke="#0F0E0E" stroke-width="1.25" stroke-linecap="round" stroke-linejoin="round"/>
</svg>
