<svg width="24" height="25" viewBox="0 0 24 25" fill="none" xmlns="http://www.w3.org/2000/svg">
<path d="M22.5401 6.64656C22.4213 6.17197 22.1794 5.73713 21.8387 5.38597C21.4981 5.0348 21.0708 4.77975 20.6001 4.64656C18.8801 4.22656 12.0001 4.22656 12.0001 4.22656C12.0001 4.22656 5.12008 4.22656 3.40008 4.68656C2.92933 4.81975 2.50206 5.0748 2.16143 5.42597C1.8208 5.77713 1.57887 6.21197 1.46008 6.68656C1.1453 8.43212 0.991319 10.2029 1.00008 11.9766C0.988863 13.7636 1.14285 15.5479 1.46008 17.3066C1.59104 17.7664 1.83839 18.1847 2.17823 18.521C2.51806 18.8574 2.9389 19.1004 3.40008 19.2266C5.12008 19.6866 12.0001 19.6866 12.0001 19.6866C12.0001 19.6866 18.8801 19.6866 20.6001 19.2266C21.0708 19.0934 21.4981 18.8383 21.8387 18.4872C22.1794 18.136 22.4213 17.7012 22.5401 17.2266C22.8524 15.4942 23.0064 13.7369 23.0001 11.9766C23.0113 10.1895 22.8573 8.40526 22.5401 6.64656V6.64656Z" stroke="#0F0E0E" stroke-width="1.25" stroke-linecap="round" stroke-linejoin="round"/>
<path d="M9.75 15.2465L15.5 11.9765L9.75 8.70654V15.2465Z" stroke="#0F0E0E" stroke-width="1.25" stroke-linecap="round" stroke-linejoin="round"/>
</svg>
