<svg width="60" height="60" viewBox="0 0 60 60" fill="none" xmlns="http://www.w3.org/2000/svg">
<path d="M40 40L30 30L20 40" stroke="#343434" stroke-width="1.25" stroke-linecap="round" stroke-linejoin="round"/>
<path d="M30 30V52.5" stroke="#343434" stroke-width="4.25" stroke-linecap="round" stroke-linejoin="round"/>
<path d="M50.9747 45.975C53.413 44.6457 55.3392 42.5422 56.4493 39.9966C57.5594 37.4509 57.7902 34.6081 57.1052 31.9167C56.4202 29.2254 54.8584 26.8388 52.6663 25.1336C50.4743 23.4285 47.7768 22.5019 44.9997 22.5H41.8497C41.0929 19.5731 39.6826 16.8559 37.7245 14.5525C35.7665 12.2491 33.3118 10.4196 30.5449 9.20154C27.778 7.98343 24.771 7.40842 21.7499 7.51973C18.7289 7.63104 15.7723 8.42577 13.1026 9.84418C10.4329 11.2626 8.11943 13.2678 6.33621 15.709C4.55299 18.1502 3.34638 20.9639 2.80711 23.9385C2.26783 26.9132 2.40992 29.9713 3.22269 32.8832C4.03546 35.795 5.49776 38.4847 7.49966 40.75" stroke="#343434" stroke-width="4.25" stroke-linecap="round" stroke-linejoin="round"/>
<path d="M40 40L30 30L20 40" stroke="#343434" stroke-width="4.25" stroke-linecap="round" stroke-linejoin="round"/>
</svg>
