<svg width="34" height="34" viewBox="0 0 34 34" fill="none" xmlns="http://www.w3.org/2000/svg">
<path d="M22.6663 22.6667L16.9997 17L11.333 22.6667" stroke="#FDFDFD" stroke-width="1.25" stroke-linecap="round" stroke-linejoin="round"/>
<path d="M17 17V29.75" stroke="#FDFDFD" stroke-width="1.25" stroke-linecap="round" stroke-linejoin="round"/>
<path d="M28.8859 26.0526C30.2676 25.2993 31.3592 24.1073 31.9882 22.6648C32.6173 21.2222 32.748 19.6113 32.3599 18.0862C31.9717 16.5611 31.0867 15.2087 29.8445 14.2424C28.6024 13.2762 27.0738 12.7511 25.5001 12.7501H23.7151C23.2863 11.0915 22.487 9.5517 21.3775 8.24647C20.2679 6.94123 18.8769 5.90451 17.309 5.21425C15.7411 4.52399 14.0372 4.19815 12.3252 4.26123C10.6133 4.3243 8.93791 4.77465 7.42507 5.57842C5.91222 6.38219 4.60127 7.51845 3.59078 8.9018C2.58029 10.2851 1.89654 11.8796 1.59095 13.5652C1.28536 15.2508 1.36588 16.9838 1.82645 18.6338C2.28702 20.2839 3.11566 21.808 4.25007 23.0917" stroke="#FDFDFD" stroke-width="1.25" stroke-linecap="round" stroke-linejoin="round"/>
<path d="M22.6663 22.6667L16.9997 17L11.333 22.6667" stroke="#FDFDFD" stroke-width="1.25" stroke-linecap="round" stroke-linejoin="round"/>
</svg>
